<svg id="ebd384a2-69e4-4ec2-b266-0eec192c1a00" data-name="Ebene 1" xmlns="http://www.w3.org/2000/svg" width="80" height="80" viewBox="0 0 80 80"><defs><linearGradient id="b2dfd3c5-1050-4a72-b800-7e2e158b0dcf" x1="12" y1="86.01" x2="12" y2="50" gradientTransform="matrix(1, 0, 0, -1, 28, 90)" gradientUnits="userSpaceOnUse"><stop offset="0" stop-color="#3767af"/><stop offset="0.5" stop-color="#3666ae"/><stop offset="1" stop-color="#1d4178"/></linearGradient></defs><path d="M55.43,19.43A15.43,15.43,0,1,0,37,34.56L40,40l3-5.44A15.45,15.45,0,0,0,55.43,19.43Z" style="fill:url(#b2dfd3c5-1050-4a72-b800-7e2e158b0dcf)"/><path d="M40.19,22a2.38,2.38,0,0,0,1.68-4,2.38,2.38,0,1,0-1.68,4Zm-4.72,2a.77.77,0,0,1-.58-.25.79.79,0,0,1-.25-.58V16a.78.78,0,0,1,.25-.57.75.75,0,0,1,.58-.26h2l.76-.92a.74.74,0,0,1,.28-.22.86.86,0,0,1,.36-.07h2.56a.86.86,0,0,1,.36.07.74.74,0,0,1,.28.22l.76.92h2a.76.76,0,0,1,.58.26.79.79,0,0,1,.26.57v7.13a.8.8,0,0,1-.26.58.79.79,0,0,1-.58.25Z" style="fill:#fff"/></svg>