<svg id="Ebene_1" data-name="Ebene 1" xmlns="http://www.w3.org/2000/svg" height="92" width="92" viewBox="0 0 92 92"><defs><linearGradient id="Unbenannter_Verlauf_4" x1="40" y1="-4.5" x2="40" y2="40" gradientUnits="userSpaceOnUse"><stop offset="0" stop-color="#3666af"/><stop offset="0.5" stop-color="#3566ad"/><stop offset="1" stop-color="#1d4178"/></linearGradient></defs><path d="M57.93,13.43A17.93,17.93,0,1,0,34.76,30.58L40,40l5.24-9.42A17.94,17.94,0,0,0,57.93,13.43Z" transform="translate(6 6)" style="stroke:#f9f9f9;stroke-miterlimit:10;stroke-width:3px;fill:url(#Unbenannter_Verlauf_4)"/><path d="M48.4,11c-.62,0-1,.59-1.58.5a.54.54,0,0,1-.47-.5V6.88a.52.52,0,0,0-.52-.53H41a.61.61,0,0,1-.55-.51c-.09-.59.55-1,.55-1.67s-.43-1.65-2.1-1.65-2.62,1-2,2.51c.47,1.31-.16,1.31-.16,1.31H32.43a.51.51,0,0,0-.51.51h0v4.22s.11.77,1.17.17c.76-.43,2.24.33,2.24,2.08s-1.14,2.22-1.49,2.22c-.59,0-1-.66-1.49-.58a.58.58,0,0,0-.45.58v4.52a.53.53,0,0,0,.53.52H37a.6.6,0,0,0,.55-.47c.09-.55-.55-1-.55-1.58A1.92,1.92,0,0,1,39.09,17a1.88,1.88,0,0,1,2,1.71,1.85,1.85,0,0,1-.06.66c-.59,1.12.17,1.31.17,1.31h4.62a.56.56,0,0,0,.54-.53V14.9s.07-.56,1.24-.11C49.11,15.32,50,14.51,50,13S49.06,11,48.4,11Z" transform="translate(6 6)" style="fill:#fff"/></svg>