<svg id="e0970e32-fa65-483d-9fdc-5cf2ccb631fe" data-name="Ebene 1" xmlns="http://www.w3.org/2000/svg" width="98"
     height="98" viewBox="0 0 98 98">
    <defs>
        <linearGradient id="bf8f7f26-5502-49ac-9ff7-40309d0c1d5b" x1="40" y1="101.5" x2="40" y2="57"
                        gradientTransform="matrix(1, 0, 0, -1, 6, 100)" gradientUnits="userSpaceOnUse">
            <stop offset="0" stop-color="#3666af"/>
            <stop offset="0.5" stop-color="#3566ad"/>
            <stop offset="1" stop-color="#1d4178"/>
        </linearGradient>
    </defs>
    <path d="M63.93,16.43A17.93,17.93,0,1,0,40.76,33.58L46,43l5.24-9.42A17.94,17.94,0,0,0,63.93,16.43Z"
          transform="translate(3 3)"
          style="stroke:#f9f9f9;stroke-miterlimit:10;stroke-width:3px;fill:url(#bf8f7f26-5502-49ac-9ff7-40309d0c1d5b)"/>
    <path d="M46,19.52a3.06,3.06,0,0,0,3.1-3.11,3.1,3.1,0,1,0-5.32,2.21A3,3,0,0,0,46,19.52Zm-6.2,2.66a1.13,1.13,0,0,1-1.1-1.1V11.73A1.06,1.06,0,0,1,39,11a1,1,0,0,1,.77-.34h2.68l1-1.2a.9.9,0,0,1,.37-.3A1.19,1.19,0,0,1,44.32,9h3.36a1.19,1.19,0,0,1,.47.09.9.9,0,0,1,.37.3l1,1.2H52.2a1.17,1.17,0,0,1,1.1,1.1v9.35a1,1,0,0,1-.34.77,1.06,1.06,0,0,1-.76.33Z"
          transform="translate(3 3)" style="fill:#fff"/>
</svg>