<svg id="a702f1ca-7255-474f-a6eb-a63278becc8e" data-name="Ebene 1" xmlns="http://www.w3.org/2000/svg" width="98" height="98" viewBox="0 0 98 98"><defs><linearGradient id="af9de757-709f-4e7f-afd4-65bd52ee4592" x1="40" y1="101.5" x2="40" y2="57" gradientTransform="matrix(1, 0, 0, -1, 6, 100)" gradientUnits="userSpaceOnUse"><stop offset="0" stop-color="#3666af"/><stop offset="0.5" stop-color="#3566ad"/><stop offset="1" stop-color="#1d4178"/></linearGradient></defs><path d="M63.93,16.43A17.93,17.93,0,1,0,40.76,33.58L46,43l5.24-9.42A17.94,17.94,0,0,0,63.93,16.43Z" transform="translate(3 3)" style="stroke:#f9f9f9;stroke-miterlimit:10;stroke-width:3px;fill:url(#af9de757-709f-4e7f-afd4-65bd52ee4592)"/><path d="M54.4,14c-.62,0-1,.59-1.58.5a.53.53,0,0,1-.47-.5V9.88a.52.52,0,0,0-.51-.53H47a.6.6,0,0,1-.55-.51c-.09-.59.55-1,.55-1.67s-.43-1.65-2.1-1.65-2.62,1-2,2.51c.47,1.31-.16,1.31-.16,1.31H38.43a.51.51,0,0,0-.51.51h0v4.22s.11.77,1.17.17c.76-.43,2.24.33,2.24,2.08s-1.14,2.22-1.49,2.22c-.59,0-1-.66-1.49-.58a.57.57,0,0,0-.45.58v4.52a.53.53,0,0,0,.53.52H43a.61.61,0,0,0,.55-.47c.09-.55-.55-1-.55-1.58A1.92,1.92,0,0,1,45.09,20a1.88,1.88,0,0,1,2,1.71,1.83,1.83,0,0,1-.06.66c-.59,1.12.17,1.31.17,1.31h4.62a.56.56,0,0,0,.54-.53V17.9s.07-.56,1.24-.11c1.51.53,2.4-.28,2.4-1.79S55.06,14,54.4,14Z" transform="translate(3 3)" style="fill:#fff"/></svg>