<svg id="b235eccf-08d0-465a-b99d-16180876d2bf" data-name="Ebene 1" xmlns="http://www.w3.org/2000/svg" width="80" height="80" viewBox="0 0 80 80"><defs><linearGradient id="a7201da2-f258-4c65-a5b8-e704548d81ef" x1="12" y1="-4" x2="12" y2="32" gradientUnits="userSpaceOnUse"><stop offset="0" stop-color="#3566af"/><stop offset="0.5" stop-color="#3465ad"/><stop offset="1" stop-color="#1d4178"/></linearGradient></defs><path d="M27.43,11.43A15.43,15.43,0,1,0,9,26.56L12,32l3-5.44A15.44,15.44,0,0,0,27.43,11.43Z" transform="translate(28 8)" style="fill:url(#a7201da2-f258-4c65-a5b8-e704548d81ef)"/><path d="M19,10.44c-.48,0-.79.45-1.21.38a.41.41,0,0,1-.36-.38V7.27a.4.4,0,0,0-.4-.4h-3.7a.47.47,0,0,1-.42-.39c-.07-.45.42-.76.42-1.28S13,3.94,11.72,3.94s-2,.73-1.51,1.92c.36,1-.12,1-.12,1H6.78a.39.39,0,0,0-.39.39h0v3.23s.09.59.9.13c.58-.33,1.71.25,1.71,1.59s-.87,1.7-1.14,1.7c-.45,0-.75-.51-1.14-.45a.44.44,0,0,0-.34.45v3.45a.4.4,0,0,0,.4.4h3.48a.45.45,0,0,0,.42-.36c.07-.42-.42-.73-.42-1.21A1.47,1.47,0,0,1,11.88,15a1.43,1.43,0,0,1,1.5,1.81c-.45.86.13,1,.13,1h3.54a.42.42,0,0,0,.41-.4v-4s.05-.43.95-.09c1.13.41,1.81-.21,1.81-1.36S19.5,10.44,19,10.44Z" transform="translate(28 8)" style="fill:#fff"/></svg>